<?xml version="1.0" encoding="UTF-8"?>
<svg width="132px" height="33px" viewBox="0 0 132 33" version="1.1" xmlns="http://www.w3.org/2000/svg" xmlns:xlink="http://www.w3.org/1999/xlink">
    <!-- Generator: Sketch 55.1 (78136) - https://sketchapp.com -->
    <title>Stellar_lockup_black_RGB</title>
    <desc>Created with Sketch.</desc>
    <g id="Page-1" stroke="none" stroke-width="1" fill="none" fill-rule="evenodd">
        <g id="Cross-border-payments---option-3" transform="translate(-36.000000, -22.000000)" fill="#FFFFFF" fill-rule="nonzero">
            <g id="Stellar_lockup_black_RGB" transform="translate(36.000000, 22.000000)">
                <path d="M33.4955153,4.36147955 L28.7995431,6.77797298 L6.1232442,18.4438033 C6.04656512,17.8531121 6.00798319,17.2580111 6.00774243,16.6622644 C6.0140514,11.8256672 8.55504769,7.35390055 12.6865655,4.90855246 C16.8180834,2.46320437 21.922595,2.40977492 26.1034016,4.76811707 L28.7912929,3.3848829 L29.1922491,3.17823105 C24.1716713,-0.502269111 17.5314419,-1.02751552 12.0047829,1.81869146 C6.478124,4.66489843 2.99910564,10.4015165 2.99974615,16.667264 C2.99974615,17.0916781 3.0156964,17.5144255 3.04759689,17.9355064 C3.13895344,19.154805 2.49607824,20.3101603 1.41737181,20.8652964 L0,21.5952441 L0,25 L4.1729142,22.8518207 L4.1729142,22.8518207 L5.52428499,22.1552039 L6.85585547,21.470253 L6.85585547,21.470253 L30.7614233,9.16780166 L33.4476646,7.78623404 L39,4.9281056 L39,1.52501623 L33.4955153,4.36147955 Z" id="Path"></path>
                <path d="M39,8 L8.21382637,23.83671 L5.52758504,25.2220053 L0,28.0676121 L0,31.4700042 L5.48963446,28.6444017 L10.1856067,26.2272197 L32.8850059,14.5413947 C32.9617407,15.1361592 33.0003218,15.7353148 33.0005077,16.3351105 C32.9975362,21.1788776 30.4536066,25.6581566 26.315957,28.1050777 C22.1783073,30.5519987 17.0669263,30.5999133 12.8850482,28.2309802 L12.7200457,28.3193324 L9.80610086,29.8196523 C14.8254984,33.5012931 21.4645361,34.0279417 26.9911678,31.1828756 C32.5177994,28.3378096 35.9982434,22.6017323 36.0002539,16.3351105 C36.0002539,15.9066858 35.9837536,15.4782611 35.9524031,15.0548375 C35.8611981,13.8356735 36.5032336,12.680329 37.5809782,12.1242127 L39,11.394057 L39,8 Z" id="Path"></path>
                <g id="Group-6" transform="translate(48.000000, 4.000000)">
                    <path d="M36.7176393,6.15091211 C32.0015213,6.15091211 28.342977,9.63349917 28.342977,15.1343284 C28.342977,20.2537313 31.3587148,24.1824212 36.813482,24.1824212 C41.0173377,24.1824212 43.7752918,21.7031509 44.5453377,18.7396352 L41.5296,18.7396352 C40.7926033,20.4461028 39.3814033,21.6053068 36.813482,21.6053068 C34.2786098,21.6053068 31.5834492,19.8026534 31.4876066,16.0679934 L44.7700721,16.0679934 C45.1236984,10.5621891 42.0104656,6.15091211 36.7176393,6.15091211 Z M31.5190033,13.5555556 C31.7767869,10.0729685 34.149718,8.66169154 36.7176393,8.66169154 C39.8292197,8.66169154 41.5940459,11.1094527 41.6898885,13.5555556 L31.5190033,13.5555556 Z" id="Shape"></path>
                    <path d="M10.5873049,10.3681592 L7.90040656,9.75621891 C5.71089836,9.27197347 4.09975082,8.24378109 4.09975082,6.18242123 C4.09975082,3.57379768 7.23942295,2.7694859 9.04060328,2.7694859 C11.3540459,2.7694859 14.0459016,3.70315091 14.8159475,6.3747927 L17.9936262,6.3747927 C17.0616393,1.89718076 13.366741,0 9.16949508,0 C5.4151082,0 0.763436066,1.90049751 0.763436066,6.3747927 C0.763436066,10.238806 3.9394623,12.0431177 7.1485377,12.7512438 L10.0486033,13.3631841 C12.9684984,14.039801 15.0539016,15.0049751 15.0539016,17.4842454 C15.0539016,19.8059701 13.0973902,21.4129353 9.63218361,21.4129353 C6.00668852,21.4129353 3.82544262,19.7379768 3.21568525,16.5190713 L0,16.5190713 C0.609757377,21.1625207 4.07496393,24.1824212 9.56112787,24.1824212 C14.1880131,24.1824212 18.4166557,21.73466 18.4166557,17.1940299 C18.4166557,12.4941957 14.1500066,11.1409619 10.5873049,10.3681592 Z" id="Path"></path>
                    <path d="M24.6860852,2.09286899 L21.7661902,2.09286899 L21.7661902,6.43946932 L19.0379803,6.43946932 L19.0379803,8.79104478 L21.7661902,8.79104478 L21.7661902,19.4162521 C21.7661902,23.0232172 22.5362361,23.7628524 25.8411541,23.7628524 L27.9579541,23.7628524 L27.9579541,21.3167496 L26.4823082,21.3167496 C24.8133246,21.3167496 24.6860852,20.8656716 24.6860852,19.0630182 L24.6860852,8.79104478 L27.9579541,8.79104478 L27.9579541,6.43946932 L24.6860852,6.43946932 L24.6860852,2.09286899 Z" id="Path"></path>
                    <path d="M82.5403279,6.34328358 C80.2615869,6.43946932 78.5298098,7.50414594 77.6639213,9.46600332 L77.6639213,6.43946932 L74.8068197,6.43946932 L74.8068197,23.7628524 L77.7267148,23.7628524 L77.7267148,14.6832504 C77.7267148,10.8192371 79.0751213,9.37645108 81.770282,9.37645108 C82.3181236,9.3766034 82.8651105,9.41985362 83.4062164,9.50580431 L83.4062164,6.3747927 C83.1182985,6.34968291 82.8293017,6.33916651 82.5403279,6.34328358 L82.5403279,6.34328358 Z" id="Path"></path>
                    <path d="M71.9976393,17.2321725 L72.0290361,13.238806 C72.0620852,8.31177446 70.0080787,6.09121061 65.1630689,6.09121061 C61.8267541,6.09121061 58.4887869,8.1840796 58.2326557,11.9187396 L61.2483934,11.9187396 C61.3772852,9.7628524 62.7570885,8.47429519 65.1944656,8.47429519 C67.3773639,8.47429519 69.109141,9.50414594 69.109141,12.6915423 L69.109141,13.1094527 C62.0514885,13.8839138 57.4312131,15.0995025 57.4312131,19.1956882 C57.4312131,22.3830846 60.1263738,24.1873964 63.3668459,24.1873964 C66.4470295,24.1873964 68.2118557,23.1923715 69.2694295,21.3864013 C69.2943774,22.1841624 69.3694379,22.9795501 69.4941639,23.7678275 L72.4454557,23.7678275 C72.093482,22.1210614 71.9645902,20.1575456 71.9976393,17.2321725 Z M69.3338754,16.5240464 C69.3338754,20.6119403 66.7362098,21.8689884 64.008,21.8689884 C61.9225967,21.8689884 60.6716852,20.774461 60.6716852,19.1310116 C60.6716852,16.747927 64.0393967,15.9436153 69.3338754,15.4278607 L69.3338754,16.5240464 Z" id="Shape"></path>
                    <rect id="Rectangle" x="46.7348459" y="0.406301824" width="2.91989508" height="23.3565506"></rect>
                    <rect id="Rectangle" x="52.5729836" y="0.406301824" width="2.91989508" height="23.3565506"></rect>
                </g>
            </g>
        </g>
    </g>
</svg>